<svg width="600" height="400" viewBox="0 0 600 400" fill="none" xmlns="http://www.w3.org/2000/svg">
  <rect width="600" height="400" fill="#F5F7FA"/>
  <rect x="100" y="80" width="400" height="240" rx="8" fill="#FFFFFF" stroke="#E2E8F0" stroke-width="2"/>
  <rect x="120" y="100" width="360" height="40" rx="4" fill="#EDF2F7"/>
  <rect x="130" y="110" width="200" height="20" rx="2" fill="#4299E1"/>
  <rect x="350" y="110" width="120" height="20" rx="2" fill="#A0AEC0"/>
  <rect x="120" y="160" width="160" height="140" rx="4" fill="#EDF2F7"/>
  <rect x="300" y="160" width="180" height="60" rx="4" fill="#EDF2F7"/>
  <rect x="300" y="240" width="180" height="60" rx="4" fill="#EDF2F7"/>
  <circle cx="200" cy="230" r="50" fill="#4299E1" fill-opacity="0.2"/>
  <path d="M200 190V270M170 230H230" stroke="#4299E1" stroke-width="4" stroke-linecap="round"/>
  <path d="M340 190C340 190 360 210 360 230C360 250 340 270 340 270" stroke="#4299E1" stroke-width="4" stroke-linecap="round"/>
  <path d="M380 190C380 190 400 210 400 230C400 250 380 270 380 270" stroke="#4299E1" stroke-width="4" stroke-linecap="round"/>
  <path d="M420 190C420 190 440 210 440 230C440 250 420 270 420 270" stroke="#4299E1" stroke-width="4" stroke-linecap="round"/>
</svg>
