<svg width="400" height="400" viewBox="0 0 400 400" fill="none" xmlns="http://www.w3.org/2000/svg">
  <rect width="400" height="400" fill="#F5F7FA"/>
  <circle cx="200" cy="200" r="150" fill="#EDF2F7"/>
  <circle cx="200" cy="200" r="120" fill="#FFFFFF" stroke="#E2E8F0" stroke-width="2"/>
  <rect x="180" y="100" width="40" height="120" rx="20" fill="#4299E1"/>
  <path d="M140 180C140 180 160 200 200 200C240 200 260 180 260 180" stroke="#4299E1" stroke-width="4" stroke-linecap="round"/>
  <path d="M120 160C120 160 150 190 200 190C250 190 280 160 280 160" stroke="#4299E1" stroke-width="4" stroke-linecap="round" stroke-opacity="0.6"/>
  <path d="M100 140C100 140 140 180 200 180C260 180 300 140 300 140" stroke="#4299E1" stroke-width="4" stroke-linecap="round" stroke-opacity="0.4"/>
  <circle cx="200" cy="260" r="30" fill="#4299E1" fill-opacity="0.2"/>
  <path d="M190 260L200 270L210 260" stroke="#4299E1" stroke-width="4" stroke-linecap="round" stroke-linejoin="round"/>
  <path d="M200 270V240" stroke="#4299E1" stroke-width="4" stroke-linecap="round"/>
</svg>
